<svg xmlns:xlink="http://www.w3.org/1999/xlink" xmlns="http://www.w3.org/2000/svg" width="32" height="32" viewBox="0 0 32 32" fill="none"><script xmlns=""/>
<path d="M16 32C24.8667 32 32 24.8667 32 16C32 7.13328 24.8667 0 16 0C7.13328 0 0 7.13328 0 16C0 24.8667 7.13328 32 16 32Z" fill="black"/>
<path d="M21.0474 24.1946C19.9626 25.2474 18.7657 25.0833 17.6248 24.5869C16.4119 24.0805 15.303 24.0485 14.0221 24.5869C12.4268 25.2754 11.5802 25.0753 10.6195 24.1946C5.19535 18.6104 5.99596 10.1039 12.1606 9.78364C13.6558 9.8637 14.7026 10.6103 15.5832 10.6723C16.8922 10.4061 18.1452 9.64353 19.5463 9.74361C21.2295 9.87971 22.4885 10.5442 23.3291 11.7391C19.8665 13.8207 20.6871 18.3842 23.8675 19.6652C23.2311 21.3364 22.4144 22.9877 21.0454 24.2086L21.0474 24.1946ZM15.4632 9.72359C15.301 7.24171 17.3126 5.20015 19.6263 5C19.9446 7.86218 17.0243 10.0038 15.4632 9.72359Z" fill="white"/>
<script xmlns=""/></svg>