<svg xmlns:xlink="http://www.w3.org/1999/xlink" xmlns="http://www.w3.org/2000/svg" width="32" height="32" viewBox="0 0 32 32" fill="none"><script xmlns=""/>
<g clip-path="url(#clip0_4314_2428)">
<rect width="32" height="32" fill="white"/>
<path fill-rule="evenodd" clip-rule="evenodd" d="M15.9052 20.3942C13.4576 20.3942 11.6505 18.6138 11.6505 16C11.6505 13.3862 13.4576 11.6058 15.9052 11.6058C17.5624 11.6058 18.9185 12.4022 19.5591 13.7276L24.4941 10.8478C22.8735 7.93112 19.634 6 15.9816 6C10.2562 6 6 10.3558 6 16C6 21.6442 10.2562 26 15.9816 26C19.6722 26 22.8735 24.0673 24.4941 21.1138L19.5591 18.2724C18.9567 19.5978 17.5624 20.3942 15.9052 20.3942Z" fill="#1D1D1D"/>
<path fill-rule="evenodd" clip-rule="evenodd" d="M23.0866 18.3367C24.3859 18.3367 25.4731 17.2433 25.4731 15.9366C25.4731 14.63 24.3859 13.5366 23.0866 13.5366C21.7874 13.5366 20.7002 14.63 20.7002 15.9366C20.7002 17.2433 21.7874 18.3367 23.0866 18.3367Z" fill="#BB8B62"/>
</g>
<defs>
<clipPath id="clip0_4314_2428">
<rect width="32" height="32" rx="16" fill="white"/>
</clipPath>
</defs>
<script xmlns=""/></svg>