<?xml version="1.0" encoding="UTF-8"?>
<svg version="1.1" xmlns="http://www.w3.org/2000/svg" width="40" height="40">
<path d="M0 0 C13.2 0 26.4 0 40 0 C40 13.2 40 26.4 40 40 C26.8 40 13.6 40 0 40 C0 26.8 0 13.6 0 0 Z " fill="#2C537A" transform="translate(0,0)"/>
<path d="M0 0 C2.97 0 5.94 0 9 0 C9 13.2 9 26.4 9 40 C4.38 40 -0.24 40 -5 40 C-8.50418348 36.04157051 -10 34.19344955 -10 29 C-7.36 29 -4.72 29 -2 29 C-2 28.34 -2 27.68 -2 27 C-2.99 26.67 -3.98 26.34 -5 26 C-5.6875 23.9375 -5.6875 23.9375 -6 22 C-8.64 22 -11.28 22 -14 22 C-14.125 15.375 -14.125 15.375 -13 12 C-12.11957031 11.99742188 -11.23914063 11.99484375 -10.33203125 11.9921875 C-8.58986328 11.93417969 -8.58986328 11.93417969 -6.8125 11.875 C-5.66394531 11.85179687 -4.51539063 11.82859375 -3.33203125 11.8046875 C0.8995929 11.13330893 0.8995929 11.13330893 5 5 C-2.26 4.67 -9.52 4.34 -17 4 C-17 3.67 -17 3.34 -17 3 C-15.94039062 2.95101563 -14.88078125 2.90203125 -13.7890625 2.8515625 C-12.40101503 2.77653291 -11.01299549 2.70098515 -9.625 2.625 C-8.57699219 2.57859375 -8.57699219 2.57859375 -7.5078125 2.53125 C-3.29814173 2.40500502 -3.29814173 2.40500502 0 0 Z " fill="#18416C" transform="translate(31,0)"/>
<path d="M0 0 C8.25 0 16.5 0 25 0 C19 7 19 7 15.5703125 7.68359375 C14.43335937 7.60238281 13.29640625 7.52117188 12.125 7.4375 C10.97257812 7.37433594 9.82015625 7.31117187 8.6328125 7.24609375 C7.76398437 7.16488281 6.89515625 7.08367188 6 7 C5.67 10.3 5.34 13.6 5 17 C7.64 17 10.28 17 13 17 C13.99 18.98 14.98 20.96 16 23 C12.04 23 8.08 23 4 23 C3.67 26.3 3.34 29.6 3 33 C0.69 33 -1.62 33 -4 33 C-3.59616457 28.62125381 -3.18711392 24.24303601 -2.77319336 19.86523438 C-2.63308057 18.37546034 -2.49440136 16.88555075 -2.35717773 15.39550781 C-2.15984565 13.25548766 -1.9573865 11.11600571 -1.75390625 8.9765625 C-1.63345947 7.68830566 -1.5130127 6.40004883 -1.38891602 5.07275391 C-1 2 -1 2 0 0 Z " fill="#899BB5" transform="translate(12,5)"/>
<path d="M0 0 C0.33 0 0.66 0 1 0 C1 11.22 1 22.44 1 34 C-1.70064757 31.29935243 -3.57646385 29.38329201 -5.578125 26.328125 C-6.01640625 25.66425781 -6.4546875 25.00039063 -6.90625 24.31640625 C-7.3496875 23.63449219 -7.793125 22.95257812 -8.25 22.25 C-8.70890625 21.55261719 -9.1678125 20.85523437 -9.640625 20.13671875 C-10.76465406 18.42725789 -11.88291224 16.71400488 -13 15 C-11.00396156 12.66317451 -9.0036279 10.33030636 -7 8 C-6.36578125 7.25878906 -5.7315625 6.51757812 -5.078125 5.75390625 C-4.45421875 5.03074219 -3.8303125 4.30757812 -3.1875 3.5625 C-2.60355469 2.88316406 -2.01960938 2.20382813 -1.41796875 1.50390625 C-0.95003906 1.00761719 -0.48210938 0.51132813 0 0 Z " fill="#899BB5" transform="translate(39,6)"/>
<path d="M0 0 C8.23255814 8.23255814 8.23255814 8.23255814 8.375 14.9375 C8.01975501 22.580997 6.23801508 27.49336877 1 33 C0.67 33 0.34 33 0 33 C0 22.11 0 11.22 0 0 Z " fill="#899BB5" transform="translate(0,2)"/>
<path d="M0 0 C0.33 0.66 0.66 1.32 1 2 C-1.64 2 -4.28 2 -7 2 C-6.72285156 2.54269531 -6.44570313 3.08539062 -6.16015625 3.64453125 C-5.79792969 4.35996094 -5.43570312 5.07539062 -5.0625 5.8125 C-4.70285156 6.52019531 -4.34320312 7.22789063 -3.97265625 7.95703125 C-3 10 -3 10 -2 13 C-7.94 13 -13.88 13 -20 13 C-20 12.01 -20 11.02 -20 10 C-17.69 10.33 -15.38 10.66 -13 11 C-12.67 7.7 -12.34 4.4 -12 1 C-6.06 0.505 -6.06 0.505 0 0 Z " fill="#1E4971" transform="translate(28,27)"/>
<path d="M0 0 C0.66 0.33 1.32 0.66 2 1 C2 3.97 2 6.94 2 10 C-0.64 10 -3.28 10 -6 10 C-6 8.35 -6 6.7 -6 5 C-5.01 4.67 -4.02 4.34 -3 4 C-1.31461399 2.00334686 -1.31461399 2.00334686 0 0 Z " fill="#17416B" transform="translate(6,30)"/>
<path d="M0 0 C3.39417765 3.12621626 5.6062718 5.56541027 7 10 C4.36 10 1.72 10 -1 10 C-1.125 3.375 -1.125 3.375 0 0 Z " fill="#899BB5" transform="translate(19,30)"/>
<path d="M0 0 C0.66 0 1.32 0 2 0 C0.46782946 3.44738372 -1.40570444 6.25309882 -4 9 C-5.32 9 -6.64 9 -8 9 C-8 8.34 -8 7.68 -8 7 C-10.64 7 -13.28 7 -16 7 C-16 6.67 -16 6.34 -16 6 C-15.26394531 5.98582031 -14.52789063 5.97164062 -13.76953125 5.95703125 C-7.31995889 5.7290078 -7.31995889 5.7290078 -1.9375 2.4375 C-1.298125 1.633125 -0.65875 0.82875 0 0 Z " fill="#264D75" transform="translate(36,6)"/>
<path d="M0 0 C0.33 0.66 0.66 1.32 1 2 C-1.64 2 -4.28 2 -7 2 C-7.33 2.66 -7.66 3.32 -8 4 C-8.66 3.67 -9.32 3.34 -10 3 C-10.33 3.66 -10.66 4.32 -11 5 C-11.33 3.68 -11.66 2.36 -12 1 C-6.06 0.505 -6.06 0.505 0 0 Z " fill="#284D77" transform="translate(28,27)"/>
</svg>
