<svg xmlns:xlink="http://www.w3.org/1999/xlink" xmlns="http://www.w3.org/2000/svg" width="32" height="32" viewBox="0 0 32 32" fill="none"><script xmlns=""/>
<g clip-path="url(#clip0_4314_2193)">
<path d="M16 32C24.8366 32 32 24.8366 32 16C32 7.16344 24.8366 0 16 0C7.16344 0 0 7.16344 0 16C0 24.8366 7.16344 32 16 32Z" fill="#0052B4"/>
<path d="M15.9999 6.26074L16.5179 7.85505H18.1942L16.838 8.84037L17.3561 10.4347L15.9999 9.4493L14.6436 10.4347L15.1617 8.84037L13.8055 7.85505H15.4818L15.9999 6.26074Z" fill="#FFDA44"/>
<path d="M9.11318 9.11324L10.6069 9.87424L11.7922 8.68899L11.5299 10.3446L13.0236 11.1057L11.3679 11.3679L11.1057 13.0237L10.3446 11.53L8.68899 11.7923L9.8743 10.607L9.11318 9.11324Z" fill="#FFDA44"/>
<path d="M6.26074 15.9999L7.85505 15.4818V13.8055L8.8403 15.1617L10.4347 14.6437L9.44924 15.9999L10.4347 17.3561L8.8403 16.8381L7.85505 18.1942V16.5179L6.26074 15.9999Z" fill="#FFDA44"/>
<path d="M9.11318 22.8865L9.87424 21.3927L8.68899 20.2074L10.3447 20.4698L11.1056 18.9761L11.3679 20.6318L13.0236 20.8941L11.5301 21.6551L11.7922 23.3107L10.6069 22.1254L9.11318 22.8865Z" fill="#FFDA44"/>
<path d="M15.9999 25.739L15.4817 24.1447H13.8055L15.1617 23.1594L14.6436 21.5652L15.9999 22.5504L17.3561 21.5652L16.838 23.1594L18.1942 24.1447H16.5179L15.9999 25.739Z" fill="#FFDA44"/>
<path d="M22.8865 22.8865L21.3928 22.1255L20.2074 23.3108L20.4697 21.6551L18.9762 20.8941L20.6318 20.6318L20.8941 18.9761L21.6551 20.4698L23.3107 20.2074L22.1254 21.3929L22.8865 22.8865Z" fill="#FFDA44"/>
<path d="M25.7389 15.9999L24.1446 16.5179V18.1942L23.1593 16.838L21.5651 17.3561L22.5504 15.9999L21.5651 14.6437L23.1594 15.1617L24.1446 13.8055V15.4819L25.7389 15.9999Z" fill="#FFDA44"/>
<path d="M22.8865 9.11324L22.1254 10.607L23.3107 11.7923L21.655 11.5299L20.8941 13.0236L20.6318 11.3679L18.9762 11.1056L20.4697 10.3446L20.2074 8.68905L21.3929 9.8743L22.8865 9.11324Z" fill="#FFDA44"/>
</g>
<defs>
<clipPath id="clip0_4314_2193">
<rect width="32" height="32" rx="16" fill="white"/>
</clipPath>
</defs>
<script xmlns=""/></svg>