<svg xmlns:xlink="http://www.w3.org/1999/xlink" xmlns="http://www.w3.org/2000/svg" width="32" height="32" viewBox="0 0 32 32" fill="none"><script xmlns=""/>
<g clip-path="url(#clip0_4314_2173)">
<path d="M0.995117 21.5651C3.2558 27.6578 9.12049 31.9999 15.9999 31.9999C22.8794 31.9999 28.7441 27.6578 31.0047 21.5651L15.9999 20.1738L0.995117 21.5651Z" fill="#FFDA44"/>
<path d="M15.9999 0C9.12049 0 3.2558 4.342 0.995117 10.4348L15.9999 11.8261L31.0047 10.4347C28.7441 4.342 22.8794 0 15.9999 0Z" fill="black"/>
<path d="M0.995188 10.4346C0.352063 12.1679 0 14.0426 0 15.9998C0 17.9569 0.352063 19.8316 0.995188 21.5649H31.0049C31.648 19.8316 32 17.9569 32 15.9998C32 14.0426 31.648 12.1679 31.0048 10.4346H0.995188Z" fill="#D80027"/>
</g>
<defs>
<clipPath id="clip0_4314_2173">
<rect width="32" height="32" fill="white"/>
</clipPath>
</defs>
<script xmlns=""/></svg>