<svg xmlns:xlink="http://www.w3.org/1999/xlink" xmlns="http://www.w3.org/2000/svg" width="32" height="32" viewBox="0 0 32 32" fill="none"><script xmlns=""/>
<g clip-path="url(#clip0_4314_2384)">
<path d="M0 16C0 7.16344 7.16344 0 16 0C24.8366 0 32 7.16344 32 16C32 24.8366 24.8366 32 16 32C7.16344 32 0 24.8366 0 16Z" fill="#D69A00"/>
<path d="M7.38864 15.9999C7.31373 15.998 7.23948 16.0143 7.17227 16.0474C7.10507 16.0806 7.04693 16.1296 7.00286 16.1902L3.93797 20.7644C3.7673 21.0186 3.98064 21.3333 4.32375 21.3333H15.2304C15.5735 21.3333 15.7869 21.0186 15.6162 20.7644L12.5513 16.1902C12.5072 16.1296 12.4491 16.0806 12.3819 16.0474C12.3147 16.0143 12.2404 15.998 12.1655 15.9999H7.38864ZM19.8331 15.9999C19.7582 15.998 19.6839 16.0143 19.6167 16.0474C19.5495 16.0806 19.4914 16.1296 19.4473 16.1902L16.3824 20.7644C16.2118 21.0186 16.4251 21.3333 16.7682 21.3333H27.6766C28.018 21.3333 28.2313 21.0186 28.0606 20.7644L24.9958 16.1902C24.9517 16.1296 24.8935 16.0806 24.8263 16.0474C24.7591 16.0143 24.6849 15.998 24.61 15.9999H19.8331ZM13.6109 8.88883C13.536 8.88689 13.4617 8.90319 13.3945 8.93633C13.3273 8.96947 13.2692 9.01845 13.2251 9.07905L10.1602 13.6533C9.98953 13.9075 10.2029 14.2222 10.546 14.2222H21.4544C21.7957 14.2222 22.0091 13.9075 21.8384 13.6533L18.7735 9.07905C18.7295 9.01845 18.6713 8.96947 18.6041 8.93633C18.5369 8.90319 18.4627 8.88689 18.3878 8.88883H13.6109Z" fill="white"/>
</g>
<rect x="0.5" y="0.5" width="31" height="31" rx="15.5" stroke="white"/>
<defs>
<clipPath id="clip0_4314_2384">
<rect width="32" height="32" rx="16" fill="white"/>
</clipPath>
</defs>
<script xmlns=""/></svg>