<svg xmlns:xlink="http://www.w3.org/1999/xlink" xmlns="http://www.w3.org/2000/svg" width="32" height="32" viewBox="0 0 32 32" fill="none"><script xmlns=""/>
<g clip-path="url(#clip0_4314_2277)">
<path d="M0 16C0 7.16344 7.16344 0 16 0C24.8366 0 32 7.16344 32 16C32 24.8366 24.8366 32 16 32C7.16344 32 0 24.8366 0 16Z" fill="#42A5F5"/>
<path d="M21.2158 10.7433C21.2158 10.8908 20.7411 13.8651 19.3136 15.0864C21.2247 8.84639 16.0069 5.3335 16.0069 5.3335C16.0069 5.3335 15.1998 9.96994 13.63 11.7211C13.5411 9.72461 12.4389 8.50327 12.4389 8.50327C11.6496 12.1122 8.88868 15.2339 8.88868 17.5717C8.88157 21.6304 12.0531 24.8891 15.9998 24.8891C19.9394 24.8891 23.1109 21.6304 23.1109 17.5717C23.1109 14.6473 22.3109 12.5051 21.2158 10.7451V10.7433Z" fill="white"/>
</g>
<rect x="0.5" y="0.5" width="31" height="31" rx="15.5" stroke="white"/>
<defs>
<clipPath id="clip0_4314_2277">
<rect width="32" height="32" rx="16" fill="white"/>
</clipPath>
</defs>
<script xmlns=""/></svg>