<svg xmlns:xlink="http://www.w3.org/1999/xlink" xmlns="http://www.w3.org/2000/svg" width="32" height="32" viewBox="0 0 32 32" fill="none"><script xmlns=""/>
<path d="M16 32C24.8667 32 32 24.8667 32 16C32 7.13328 24.8667 0 16 0C7.13328 0 0 7.13328 0 16C0 24.8667 7.13328 32 16 32Z" fill="#76B900"/>
<path d="M12.9482 12.7731V11.3307L13.372 11.3129C17.2945 11.1882 19.8644 14.7139 19.8644 14.7139C19.8644 14.7139 17.0909 18.5957 14.1137 18.5957C13.7205 18.5966 13.3297 18.5334 12.9565 18.4086V14.0279C14.4846 14.215 14.794 14.8916 15.7037 16.4318L17.7438 14.7045C17.7438 14.7045 16.2513 12.7368 13.7425 12.7368C13.4774 12.7277 13.2126 12.7458 12.9475 12.7723M12.9475 8V10.1544L13.3713 10.128C18.8215 9.94089 22.381 14.6334 22.381 14.6334C22.381 14.6334 18.301 19.6378 14.0522 19.6378C13.681 19.6378 13.3191 19.6023 12.9572 19.5395V20.8749C13.2572 20.9104 13.5666 20.9373 13.867 20.9373C17.8244 20.9373 20.6864 18.8985 23.4595 16.4946C23.9189 16.8688 25.8003 17.7676 26.1895 18.1596C23.557 20.3858 17.4183 22.1748 13.9383 22.1748C13.6136 22.1753 13.2893 22.1575 12.9666 22.1215V24H28V8.00038L12.9475 8ZM12.9475 18.4079V19.5475C9.2875 18.8902 8.275 15.0522 8.275 15.0522C8.275 15.0522 10.033 13.0928 12.9475 12.7723V14.0196H12.9385C11.4104 13.8325 10.2085 15.2745 10.2085 15.2745C10.2085 15.2745 10.8895 17.7049 12.9475 18.4079ZM6.4555 14.8923C6.4555 14.8923 8.61925 11.6694 12.9569 11.3311V10.1556C8.15125 10.5475 4 14.6433 4 14.6433C4 14.6433 6.34975 21.4989 12.9482 22.1222V20.8757C8.10775 20.2702 6.4555 14.8923 6.4555 14.8923Z" fill="white"/>
<script xmlns=""/></svg>