<svg xmlns:xlink="http://www.w3.org/1999/xlink" xmlns="http://www.w3.org/2000/svg" width="32" height="32" viewBox="0 0 32 32" fill="none"><script xmlns=""/>
<g clip-path="url(#clip0_4314_2325)">
<path d="M0 16C0 7.16344 7.16344 0 16 0C24.8366 0 32 7.16344 32 16C32 24.8366 24.8366 32 16 32C7.16344 32 0 24.8366 0 16Z" fill="#ADABB8"/>
<path d="M7.50973 17.1112C7.43513 17.1096 7.36123 17.126 7.29436 17.1591C7.22749 17.1923 7.16963 17.2411 7.12573 17.3014L4.05907 21.8757C3.89018 22.1299 4.10351 22.4463 4.44484 22.4463H15.3533C15.6946 22.4463 15.9097 22.1299 15.7391 21.8757L12.6724 17.3014C12.6285 17.2411 12.5706 17.1923 12.5038 17.1591C12.4369 17.126 12.363 17.1096 12.2884 17.1112H7.50973ZM19.9542 17.1112C19.8796 17.1096 19.8057 17.126 19.7388 17.1591C19.6719 17.1923 19.6141 17.2411 19.5702 17.3014L16.5035 21.8757C16.3328 22.1299 16.548 22.4463 16.8893 22.4463H27.7977C28.1391 22.4463 28.3542 22.1299 28.1835 21.8757L25.1168 17.3014C25.0729 17.2411 25.0151 17.1923 24.9482 17.1591C24.8813 17.126 24.8075 17.1096 24.7328 17.1112H19.9542ZM13.732 10.0001C13.6573 9.99847 13.5834 10.0149 13.5166 10.048C13.4497 10.0812 13.3919 10.13 13.348 10.1903L10.2813 14.7646C10.1124 15.0188 10.3257 15.3352 10.6671 15.3352H21.5755C21.9168 15.3352 22.132 15.0188 21.9613 14.7646L18.8946 10.1903C18.8509 10.1302 18.7933 10.0816 18.7268 10.0484C18.6603 10.0153 18.5867 9.99875 18.5124 10.0001H13.732Z" fill="white"/>
</g>
<rect x="0.5" y="0.5" width="31" height="31" rx="15.5" stroke="white"/>
<defs>
<clipPath id="clip0_4314_2325">
<rect width="32" height="32" rx="16" fill="white"/>
</clipPath>
</defs>
<script xmlns=""/></svg>