<svg xmlns:xlink="http://www.w3.org/1999/xlink" xmlns="http://www.w3.org/2000/svg" width="32" height="32" viewBox="0 0 32 32" fill="none"><script xmlns=""/>
<rect x="0.5" y="0.5" width="31" height="31" rx="15.5" fill="white"/>
<path d="M16.0012 28L19.079 10.6163C22.0126 10.6163 22.938 10.9394 23.0716 12.2581C23.0716 12.2581 25.0396 11.5211 26.0322 10.0244C22.1588 8.22194 18.267 8.14065 18.267 8.14065L15.9961 10.9185L16.0012 10.9181L13.7303 8.14022C13.7303 8.14022 9.8384 8.2216 5.9656 10.0241C6.95731 11.5208 8.92607 12.2577 8.92607 12.2577C9.06045 10.9389 9.98467 10.6159 12.8986 10.6138L16.0012 28Z" fill="#E82127"/>
<path d="M16 7.33829C19.131 7.31424 22.7148 7.82472 26.3836 9.43058C26.8739 8.54422 27 8.1525 27 8.1525C22.9895 6.55901 19.2338 6.01368 15.9996 6C12.7656 6.01368 9.00996 6.5591 5 8.1525C5 8.1525 5.17889 8.63501 5.61597 9.43058C9.28402 7.82472 12.8689 7.31424 16 7.33829Z" fill="#E82127"/>
<rect x="0.5" y="0.5" width="31" height="31" rx="15.5" stroke="white"/>
<script xmlns=""/></svg>