<svg version="1.2" xmlns="http://www.w3.org/2000/svg" viewBox="0 0 135 53" width="135" height="53">
	<title>google-play-svg</title>
	<defs>
		<linearGradient id="g1" x2="1" gradientUnits="userSpaceOnUse" gradientTransform="matrix(-16.783,16.782,-16.917,-16.918,21.8,15.71)">
			<stop offset="0" stop-color="#00a0ff"/>
			<stop offset=".007" stop-color="#00a1ff"/>
			<stop offset=".26" stop-color="#00beff"/>
			<stop offset=".512" stop-color="#00d2ff"/>
			<stop offset=".76" stop-color="#00dfff"/>
			<stop offset="1" stop-color="#00e3ff"/>
		</linearGradient>
		<linearGradient id="g2" x2="1" gradientUnits="userSpaceOnUse" gradientTransform="matrix(-24.197,0,0,-20.265,33.834,27.001)">
			<stop offset="0" stop-color="#ffe000"/>
			<stop offset=".409" stop-color="#ffbd00"/>
			<stop offset=".775" stop-color="#ffa500"/>
			<stop offset="1" stop-color="#ff9c00"/>
		</linearGradient>
		<linearGradient id="g3" x2="1" gradientUnits="userSpaceOnUse" gradientTransform="matrix(-22.758,22.758,-7.647,-7.647,24.827,29.296)">
			<stop offset="0" stop-color="#ff3a44"/>
			<stop offset="1" stop-color="#c31162"/>
		</linearGradient>
		<linearGradient id="g4" x2="1" gradientUnits="userSpaceOnUse" gradientTransform="matrix(10.163,10.163,-3.469,3.469,7.297,7.176)">
			<stop offset="0" stop-color="#32a071"/>
			<stop offset=".069" stop-color="#2da771"/>
			<stop offset=".476" stop-color="#15cf74"/>
			<stop offset=".801" stop-color="#06e775"/>
			<stop offset="1" stop-color="#00f076"/>
		</linearGradient>
	</defs>
	<style>
		.s0 { fill: #000000 } 
		.s1 { fill: #a6a6a6 } 
		.s2 { fill: #000000;stroke: #ffffff;stroke-miterlimit:10;stroke-width: .4 } 
		.s3 { fill: #ffffff } 
		.s4 { fill: url(#g1) } 
		.s5 { fill: url(#g2) } 
		.s6 { fill: url(#g3) } 
		.s7 { fill: url(#g4) } 
		.s8 { opacity: .2;fill: #000000 } 
		.s9 { opacity: .2;fill: #ffffff } 
	</style>
	<path id="Layer" class="s0" d="m130 47h-125c-2.8 0-5-2.2-5-5v-30c0-2.8 2.2-5 5-5h125c2.8 0 5 2.2 5 5v30c0 2.8-2.2 5-5 5z"/>
	<path id="Layer" fill-rule="evenodd" class="s1" d="m135 12v30c0 2.8-2.2 5-5 5h-125c-2.8 0-5-2.2-5-5v-30c0-2.7 2.2-5 5-5h125c2.8 0 5 2.3 5 5zm-130-4.2c-2.3 0-4.2 1.9-4.2 4.2v30c0 2.3 1.9 4.2 4.2 4.2h125c2.3 0 4.2-1.9 4.2-4.2v-30c0-2.3-1.9-4.2-4.2-4.2z"/>
	<path id="Layer" fill-rule="evenodd" class="s2" d="m47.4 17.2c0 0.8-0.2 1.5-0.7 2-0.6 0.6-1.3 0.9-2.2 0.9-0.9 0-1.6-0.3-2.2-0.9-0.6-0.6-0.9-1.3-0.9-2.2 0-0.9 0.3-1.6 0.9-2.2 0.6-0.6 1.3-0.9 2.2-0.9q0.6 0 1.2 0.3c0.4 0.2 0.7 0.4 0.9 0.7l-0.5 0.5c-0.4-0.5-0.9-0.7-1.6-0.7-0.6 0-1.2 0.2-1.6 0.7-0.5 0.4-0.7 1-0.7 1.7 0 0.7 0.2 1.3 0.7 1.7 0.5 0.4 1 0.7 1.6 0.7 0.7 0 1.2-0.2 1.7-0.7 0.3-0.3 0.5-0.7 0.5-1.2h-2.2v-0.8h2.9zm4.6-2.5h-2.7v1.9h2.5v0.7h-2.5v1.9h2.7v0.8h-3.5v-6h3.5zm3.3 5.3h-0.8v-5.3h-1.7v-0.7h4.2v0.7h-1.7zm4.6 0v-6h0.8v6zm3.4 0v-5.3h-1.7v-0.7h4.1v0.7h-1.7v5.3zm10.3-0.8c-0.6 0.6-1.3 0.9-2.2 0.9-0.9 0-1.6-0.3-2.2-0.9-0.6-0.6-0.9-1.3-0.9-2.2 0-0.9 0.3-1.6 0.9-2.2 0.6-0.6 1.3-0.9 2.2-0.9 0.9 0 1.6 0.3 2.2 0.9 0.6 0.6 0.9 1.3 0.9 2.2 0 0.9-0.3 1.6-0.9 2.2zm-3.8-0.5c0.4 0.4 1 0.7 1.6 0.7 0.6 0 1.2-0.2 1.6-0.7 0.4-0.4 0.7-1 0.7-1.7 0-0.7-0.2-1.3-0.7-1.7-0.4-0.4-1-0.7-1.6-0.7-0.6 0-1.2 0.2-1.6 0.7-0.4 0.4-0.7 1-0.7 1.7 0 0.7 0.2 1.3 0.7 1.7zm5.8 1.3v-6h0.9l2.9 4.7v-4.7h0.8v6h-0.8l-3.1-4.9v4.9z"/>
	<path id="Layer" fill-rule="evenodd" class="s3" d="m72.4 33.1c0 2.5-1.9 4.3-4.3 4.3-2.4 0-4.3-1.9-4.3-4.3 0-2.5 1.9-4.3 4.3-4.3 2.4 0 4.3 1.7 4.3 4.3zm-1.9-0.1c0-1.6-1.1-2.6-2.4-2.6-1.3 0-2.4 1.1-2.4 2.6 0 1.5 1.1 2.6 2.4 2.6 1.3 0 2.4-1.1 2.4-2.6zm-7.4 0.1c0 2.5-1.9 4.3-4.3 4.3-2.4 0-4.3-1.9-4.3-4.3 0-2.5 1.9-4.3 4.3-4.3 2.4 0 4.3 1.7 4.3 4.3zm-1.9-0.1c0-1.6-1.1-2.6-2.4-2.6-1.3 0-2.4 1.1-2.4 2.6 0 1.5 1.1 2.6 2.4 2.6 1.3 0 2.4-1.1 2.4-2.6zm-7.3-2.9c0.1 0.3 0.1 0.7 0.1 1.1 0 1.3-0.4 3-1.6 4.2-1.2 1.3-2.6 1.9-4.6 1.9-3.6 0-6.7-3-6.7-6.6 0-3.6 3.1-6.6 6.7-6.6 2 0 3.4 0.8 4.5 1.8l-1.3 1.3c-0.8-0.7-1.9-1.3-3.3-1.3-2.6 0-4.7 2.1-4.7 4.8 0 2.7 2 4.8 4.7 4.8 1.7 0 2.7-0.7 3.3-1.3 0.5-0.5 0.9-1.3 1-2.3h-4.3v-1.8zm39.4 1.9l-5.7 2.4c0.5 0.9 1.1 1.3 2.1 1.3 1 0 1.6-0.5 2.1-1.2l1.4 1c-0.4 0.7-1.6 1.9-3.5 1.9-2.4 0-4.2-1.9-4.2-4.3 0-2.6 1.8-4.3 4-4.3 2.2 0 3.2 1.7 3.6 2.7zm-2.2-0.7c-0.2-0.5-0.9-0.9-1.6-0.9-0.9 0-2.2 0.9-2.2 2.5zm-8.5-6.8h1.9v12.5h-1.9zm-3 4.5h1.8v7.6c0 3.1-1.8 4.4-4 4.4-2.1 0-3.3-1.4-3.8-2.5l1.6-0.7c0.2 0.7 1 1.5 2.1 1.5 1.4 0 2.3-0.9 2.3-2.5v-0.6h-0.1c-0.4 0.5-1.2 1-2.2 1-2.2 0-4.1-1.8-4.1-4.2 0-2.4 2-4.3 4.1-4.3 1 0 1.8 0.5 2.3 1zm0.1 4c0-1.5-1-2.6-2.3-2.6-1.3 0-2.4 1.1-2.4 2.6 0 1.5 1.1 2.6 2.4 2.6 1.3 0 2.3-1.1 2.3-2.6zm26.2-4.6c0 2.4-2 3.9-4.1 3.9h-2.6v4.7h-1.9v-12.5h4.5c2.1 0 4.1 1.5 4.1 3.9zm-1.8-0.1c0-0.9-0.8-2.1-2.2-2.1h-2.7v4.3h2.7c1.3 0 2.1-1.1 2.2-2.2zm13.3 3.9v4.8h-1.8v-1h-0.1c-0.5 0.6-1.1 1.2-2.4 1.2-1.6 0-3.1-1.1-3.1-2.8 0-1.8 1.8-2.8 3.6-2.8 0.8 0 1.6 0.3 1.9 0.5v-0.1c-0.1-1-1-1.6-2-1.6-0.7 0-1.3 0.2-1.7 0.9l-1.7-0.7c0.5-1.3 1.9-1.9 3.3-1.9 2.1 0 3.8 1.3 4 3.5zm-2 1.4c-0.5-0.2-0.9-0.4-1.7-0.4-0.9 0-2 0.3-2 1.3 0 0.8 0.9 1.1 1.5 1.1 1 0 2-0.8 2.2-2zm10.3-4.6l-5.1 11.8h-1.9l1.9-4.2-3.3-7.6h2l2.2 5.4h0.1l2.1-5.4zm-18.8-4.5h1.9v12.5h-1.9z"/>
	<g id="Layer">
		<path id="Layer" class="s4" d="m10.4 14.5c-0.3 0.3-0.4 0.8-0.4 1.4v22.1c0 0.6 0.2 1.1 0.5 1.4l0.1 0.1 12.4-12.4v-0.2z"/>
		<path id="Layer" class="s5" d="m27 31.3l-4.1-4.1v-0.3l4.1-4.1 0.1 0.1 4.9 2.8c1.4 0.8 1.4 2.1 0 2.9z"/>
		<path id="Layer" class="s6" d="m27.1 31.2l-4.2-4.2-12.5 12.5c0.5 0.5 1.2 0.5 2.1 0.1z"/>
		<path id="Layer" class="s7" d="m27.1 22.8l-14.6-8.3c-0.9-0.5-1.6-0.4-2.1 0.1l12.5 12.4z"/>
		<path id="Layer" class="s8" d="m27 31.1l-14.5 8.2c-0.8 0.5-1.5 0.4-2 0l-0.1 0.1 0.1 0.1c0.5 0.4 1.2 0.5 2 0z"/>
		<path id="Layer" fill-rule="evenodd" class="s8" d="m10.4 39.3q-0.3-0.4-0.4-1 0.1 0.6 0.4 1zm-0.4-1.4v0.1q0 0.2 0 0.3 0-0.2 0-0.4zm0.5 1.5v-0.1h-0.1q0 0.1 0.1 0.1zm21.5-11.1l-5 2.8 0.1 0.1 4.9-2.8c0.7-0.4 1-0.9 1-1.4 0 0.5-0.4 0.9-1 1.3z"/>
		<path id="Layer" class="s9" d="m12.5 14.6l19.5 11.1c0.6 0.4 1 0.8 1 1.3 0-0.5-0.3-1-1-1.4l-19.5-11.1c-1.4-0.8-2.5-0.2-2.5 1.4v0.1c0-1.5 1.1-2.2 2.5-1.4z"/>
	</g>
</svg>