<svg width="17" height="12" viewBox="0 0 17 12" fill="none" xmlns="http://www.w3.org/2000/svg"><path id="next (2)" d="M16.4555 5.46912L11.1387 0.219647C11.0682 0.15001 10.9845 0.094771 10.8924 0.0570839C10.8003 0.0193969 10.7015 0 10.6018 0C10.4004 0 10.2073 0.0790094 10.0648 0.219647C9.99433 0.289283 9.9384 0.371954 9.90024 0.462938C9.86208 0.553923 9.84243 0.65144 9.84243 0.749921C9.84243 0.948812 9.92244 1.13956 10.0648 1.2802L14.0846 5.24999H0.729545C0.533406 5.25777 0.347922 5.3402 0.211934 5.48C0.0759456 5.6198 0 5.80614 0 6C0 6.19386 0.0759456 6.3802 0.211934 6.52C0.347922 6.6598 0.533406 6.74223 0.729545 6.75001H14.0846L10.0648 10.7198C9.99433 10.7894 9.9384 10.8721 9.90024 10.9631C9.86208 11.0541 9.84243 11.1516 9.84243 11.2501C9.84243 11.3486 9.86208 11.4461 9.90024 11.5371C9.9384 11.628 9.99433 11.7107 10.0648 11.7804C10.2073 11.921 10.4004 12 10.6018 12C10.7015 12 10.8003 11.9806 10.8924 11.9429C10.9845 11.9052 11.0682 11.85 11.1387 11.7804L16.4555 6.52967C16.5977 6.38894 16.6776 6.19823 16.6776 5.99939C16.6776 5.80056 16.5977 5.60985 16.4555 5.46912Z" fill="url(#paint0_linear_127_216)"/><defs><linearGradient id="paint0_linear_127_216" x1="0.867237" y1="6" x2="16.0606" y2="6" gradientUnits="userSpaceOnUse"><stop stop-color="#30D5F1"/><stop offset="1" stop-color="#A855F7"/></linearGradient></defs></svg>